<svg width="1922" height="102" viewBox="0 0 1922 102" fill="none" xmlns="http://www.w3.org/2000/svg">
<path d="M1921 64.7767C1862.95 74.9697 1806.95 93.9132 1748.13 97.3108C1664.69 102.132 1582.64 86.3358 1499.48 87.0324C1435.38 87.569 1371.01 107.044 1306.97 99.0963C1205.84 86.5415 1109.56 23.0578 1006.42 21.7235C943.305 20.9078 887.554 46.9161 826.263 55.8193C711.123 72.5466 592.331 77.3904 476.662 70.9825C438.944 68.8926 401.488 62.6736 365.534 46.424C349.032 38.9645 332.95 27.6417 316.499 18.2993C298.967 8.34335 281.024 0.6288 261.905 1.01381C214.998 1.95827 171.919 23.8037 128.945 46.8414C87.4392 69.0923 46.0339 92.4682 1 97.2759" stroke="#FFB750" stroke-width="1"/>
</svg>
