<svg width="1922" height="102" viewBox="0 0 1922 102" fill="none" xmlns="http://www.w3.org/2000/svg">
<path d="M1921 30.302C1791.03 17.326 1666.33 9.5177 1536.71 30.5062C1501.9 36.1402 1463.12 49.9058 1425.46 62.2908C1389.24 74.2012 1354.15 84.908 1324.94 84.8181C1198.39 84.43 1073.24 61.3486 946.088 67.4578C890.289 70.1381 838.292 83.0709 783.767 90.7204C715.779 100.258 645.196 104.229 576.425 97.997C543.081 94.9758 509.106 88.7481 479.171 76.7492C458.257 68.3666 442.732 55.3585 423.776 44.9834C383.851 23.1335 322.618 1.41387 272.987 1.00757C209.562 0.487664 164.106 26.8704 107.959 44.0272C74.1817 54.3487 37.0098 57.3231 1 58.0988" stroke="#FFB750" stroke-width="1"/>
</svg>
