<svg width="1922" height="102" viewBox="0 0 1922 102" fill="none" xmlns="http://www.w3.org/2000/svg">
<path d="M1 71.621C54.6783 70.0892 107.935 63.4887 159.657 48.3799C225.4 29.1772 287.107 -0.357995 357.062 1.04844C447.164 2.85871 534.889 31.266 625.915 32.5749C790.577 34.9144 956.761 8.80471 1121.33 23.44C1155.78 26.5035 1186.91 42.601 1218.71 55.2033C1257.64 70.6323 1298.18 82.9699 1339.29 90.4477C1415.78 104.387 1491.87 100.975 1569.07 99.6522C1623.26 98.7053 1677.67 101.198 1731.82 99.0117C1766.65 97.5914 1794.56 81.48 1826.48 69.5461C1856.82 58.225 1889.05 52.084 1921 48.0597" stroke="#FFB750" stroke-width="1" stroke-miterlimit="1.5" stroke-linecap="round" stroke-linejoin="round"/>
</svg>
