<svg width="1922" height="102" viewBox="0 0 1922 102" fill="none" xmlns="http://www.w3.org/2000/svg">
<path d="M1921 19.8997C1873.88 28.5331 1827.04 28.3496 1779.75 32.4278C1728.74 36.8271 1679.5 45.193 1628.21 41.7937C1559.76 37.2553 1491.97 18.9012 1423.42 18.6626C1369.17 18.473 1317.87 39.2951 1264.49 49.6213C1232.7 55.7699 1200.53 53.6888 1168.65 51.1061C1051.72 41.6393 936.688 -1.48819 819.147 1.11286C739.488 2.87594 665.413 46.4973 586.684 55.2654C515.775 63.1633 444.258 46.7359 373.148 51.8814C319.424 55.7699 265.087 58.2058 211.549 66.4845C141.201 77.3627 71.6579 94.8789 1 101" stroke="#FFB750" stroke-width="1"/>
</svg>
