<svg width="1922" height="102" viewBox="0 0 1922 102" fill="none" xmlns="http://www.w3.org/2000/svg">
<path d="M1 64.2441C124.228 63.0454 243.109 16.9395 366.378 20.7495C385.531 21.3489 407.629 21.5344 425.915 28.3982C471.513 45.5505 508.319 79.0705 560.013 75.2176C595.182 72.592 627.722 51.5296 661.089 41.5407C697.441 30.6671 734.302 34.3059 770.723 26.4575C811.629 17.653 843.592 0.971497 886.975 1.00004C924.084 1.02858 966.449 1.51372 999.746 20.4784C1050.23 49.2179 1084.75 99.3908 1147.42 100.96C1183.24 101.859 1215.73 87.2471 1249.26 76.1309C1289.75 62.703 1331.92 52.3145 1374.4 48.8469C1433.07 44.0522 1492.14 49.4177 1550.86 49.9171C1674.21 50.9731 1797.66 47.4484 1921 45.6504" stroke="#FFB750" stroke-width="1" stroke-miterlimit="1.5" stroke-linecap="round" stroke-linejoin="round"/>
</svg>
