<svg width="1922" height="102" viewBox="0 0 1922 102" fill="none" xmlns="http://www.w3.org/2000/svg">
<path d="M1921 61.0705C1855.1 57.9418 1791.96 43.5017 1726.93 35.7762C1640.8 25.5478 1550.55 21.3601 1463.6 20.8427C1406.32 20.4937 1348.53 34.4886 1291.83 40.0601C1203.94 48.7001 1111.7 50.6496 1023.34 47.8698C924.205 44.7532 837.833 -3.70555 737.115 1.37256C690.892 3.69502 637.792 10.6263 595.275 27.1482C562.665 39.8194 536.073 60.5651 504.548 74.7044C464.16 92.8027 418.12 100.564 372.743 100.985C301.055 101.671 241.472 77.8812 173.927 61.973C117.614 48.7122 59.3283 43.8025 1 44.0312" stroke="#FFB750" stroke-width="1" stroke-miterlimit="1.5" stroke-linecap="round" stroke-linejoin="round"/>
</svg>
