<svg width="1920" height="100" viewBox="0 0 1920 100" fill="none" xmlns="http://www.w3.org/2000/svg">
<path d="M1920 44.6505C1886.26 45.1423 1852.52 45.7633 1818.77 46.3844L1818.75 46.3847C1729.12 48.0342 1639.47 49.6842 1549.86 48.9172C1530.84 48.7554 1511.8 48.084 1492.74 47.4123C1452.93 46.0088 1413.09 44.6041 1373.42 47.8461C1330.97 51.3115 1288.82 61.6942 1248.34 75.1182C1242.04 77.2042 1235.78 79.4149 1229.53 81.6239L1229.52 81.6275C1202.49 91.1766 1175.55 99.6916 1146.42 98.9604C1115.01 98.1737 1090.66 86.2058 1067.87 69.8613C1059.88 64.1298 1052.07 57.9782 1044.22 51.7907L1044.2 51.7792C1040.87 49.1512 1037.52 46.5166 1034.15 43.9051C1022.84 35.1374 1011.23 26.6216 998.623 19.4457C965.392 0.519201 923.097 0.028601 885.975 3.65393e-05C864.316 -0.0142152 845.506 4.14231 826.988 9.4069C821.229 11.0446 815.494 12.7905 809.71 14.5513C796.91 18.4482 783.87 22.4183 769.775 25.4519C753.664 28.9239 737.466 30.1502 721.284 31.3754C719.155 31.5366 717.027 31.6977 714.899 31.8639C696.588 33.2944 678.309 35.1018 660.16 40.5303C647.87 44.2097 635.696 49.3911 623.447 54.605C619.084 56.462 614.712 58.3231 610.321 60.1218C593.615 66.9661 576.657 72.901 559.031 74.217C533.123 76.148 510.952 68.7115 489.572 58.6612C481.754 54.9863 474.037 50.9591 466.281 46.912L466.268 46.9049C463.426 45.4218 460.579 43.936 457.72 42.464C447.052 36.9707 436.212 31.6651 424.827 27.3822C407.837 21.0051 387.542 20.4062 369.347 19.8692L369.339 19.8689C368.004 19.8295 366.681 19.7904 365.371 19.7494C303.766 17.8453 243.253 28.414 182.719 39.6144C179.649 40.1824 176.58 40.752 173.509 41.3218L173.268 41.3666C115.887 52.0145 58.4346 62.6757 0.00244141 63.2441V100H1920V44.6505Z" fill="#fff"/>
</svg>
