<svg width="1920" height="100" viewBox="0 0 1920 100" fill="none" xmlns="http://www.w3.org/2000/svg">
<path d="M0.000488281 70.3885V100H1920V47.0932C1888.15 51.1169 1856.04 57.2519 1825.82 68.5303C1817.85 71.511 1810.12 74.7528 1802.47 77.9632L1802.47 77.9655C1794.82 81.176 1787.24 84.3551 1779.58 87.2058C1764.24 92.9076 1748.53 97.2999 1731.08 98.0115C1704 99.1049 1676.85 99.0283 1649.71 98.7967C1645.56 98.7613 1641.42 98.7224 1637.28 98.6835H1637.27C1614.27 98.4673 1591.28 97.2512 1568.32 97.6522C1559.95 97.7956 1551.6 96.9636 1543.25 97.1314C1474.62 98.511 1406.72 100.876 1338.49 88.4437C1297.36 80.9625 1256.81 69.6197 1217.87 54.1857C1211.26 51.5652 1204.68 48.7957 1198.09 46.0245C1172.98 35.455 1147.82 24.8629 1120.56 22.439C1038.29 15.123 955.619 17.9907 872.921 22.3962C858.199 23.1804 843.476 24.0135 828.754 24.8464L828.744 24.847C760.778 28.6925 692.841 32.5364 625.162 31.5749C579.626 30.9201 534.92 23.4875 490.351 15.9962L488.752 15.7275C444.712 8.32434 400.798 0.942257 356.307 0.0483969C321.366 -0.654118 288.479 6.37048 256.101 15.9754C240.396 20.6345 224.814 25.8996 209.175 31.1838L207.729 31.6723C191.607 37.1194 175.419 42.5676 158.978 47.3699C107.23 62.4861 53.9507 69.0886 0.257324 70.6208C0.194824 70.6226 0.136719 70.6012 0.0917969 70.5645C0.0400391 70.5223 0.00537109 70.4596 0.000488281 70.3885Z" fill="#fff"/>
</svg>
