<svg width="1920" height="100" viewBox="0 0 1920 100" fill="none" xmlns="http://www.w3.org/2000/svg">
<path d="M1920 11.1735C1920 11.1735 1919.99 11.1735 1919.99 11.1733C1909.99 10.7918 1900.05 10.3383 1890.15 9.88663C1839.72 7.58594 1790.36 5.33378 1739.62 12.897C1706.12 17.888 1672.45 25.0267 1638.65 32.1928L1638.61 32.2008C1623.19 35.4713 1607.74 38.7474 1592.26 41.8275C1542.87 51.6572 1493.27 59.4872 1443.63 58.746C1409.3 58.2291 1376.13 51.4889 1343.04 44.7479L1342.77 44.693C1309.77 37.9688 1276.84 31.2608 1242.88 30.719C1194.32 29.9409 1146.44 33.7602 1098.59 37.578C1090.45 38.2276 1082.31 38.8771 1074.16 39.5039C1018.16 43.8144 962.027 47.051 904.729 41.8363C857.542 37.5415 810.614 30.1468 763.727 22.7583C745.907 19.9504 728.094 17.1433 710.273 14.5077C645.558 4.936 580.748 -2.37699 515.222 0.720854C434.854 4.52608 358.073 27.3285 281.306 50.1266L281.197 50.1589C273.716 52.3805 266.236 54.602 258.752 56.8058C174.45 81.6304 89.7515 103.205 0 98.3325V100H1920V11.1735Z" fill="#FFF0DB"/>
</svg>
