<svg width="1920" height="100" viewBox="0 0 1920 100" fill="none" xmlns="http://www.w3.org/2000/svg">
<path d="M1920 60.0705C1920 60.0705 1919.99 60.0704 1919.99 60.0703C1887.03 58.5053 1854.75 54.1113 1822.6 49.1442C1814.48 47.8901 1806.37 46.5996 1798.26 45.3088C1774.24 41.4864 1750.2 37.6615 1725.9 34.7745C1639.78 24.5474 1549.55 20.3601 1462.6 19.8427C1433.98 19.6683 1405.22 23.0776 1376.53 27.2287C1368.88 28.3359 1361.23 29.496 1353.59 30.655L1353.59 30.6552C1332.59 33.8402 1311.65 37.0159 1290.86 39.0589C1202.95 47.7002 1110.7 49.6497 1022.34 46.8697C976.766 45.4371 933.892 34.4303 891.114 23.4483C887.329 22.4766 883.545 21.5051 879.76 20.5405C833.184 8.67094 786.444 -2.1647 736.127 0.37226C689.914 2.69422 636.845 9.62373 594.366 26.1313C578.081 32.4591 563.295 40.8043 548.63 49.3419C547.168 50.193 545.708 51.0461 544.247 51.8992L544.245 51.9003C531.056 59.6022 517.854 67.3122 503.651 73.6826C463.223 91.7983 417.147 98.5642 371.745 98.9855C335.872 99.3288 303.032 94.5479 270.722 86.695C255.597 83.019 240.587 78.8883 225.436 74.7192L222.34 73.8675C206.136 69.4107 189.751 64.9422 172.87 60.9664C116.581 47.7111 58.3151 42.8026 0.000976562 43.0312V100H1920V60.0705Z" fill="#ffffff"/>
</svg>
