<svg width="20" height="18" viewBox="0 0 20 18" fill="none" xmlns="http://www.w3.org/2000/svg">
<path fill-rule="evenodd" clip-rule="evenodd" d="M3.24813 16.6828C5.4559 14.9917 7.44209 12.9711 9.49219 11.0974C12.4993 8.34876 15.5517 5.64776 18.1572 2.50189C18.4485 2.15025 18.3994 1.62827 18.0478 1.33702C17.6961 1.04571 17.1741 1.09477 16.8828 1.44645C14.3262 4.5333 11.3265 7.17893 8.37579 9.87599C6.36087 11.7177 4.41186 13.7071 2.24191 15.3693C1.87941 15.6469 1.81055 16.1667 2.08823 16.5292C2.3659 16.8917 2.88564 16.9605 3.24813 16.6828Z" fill="#231F20"/>
<path fill-rule="evenodd" clip-rule="evenodd" d="M2.55577 4.48514C6.76539 8.05641 10.9906 11.4601 15.7597 14.2731C16.153 14.5052 16.6607 14.3742 16.8927 13.9809C17.1247 13.5876 16.9937 13.0799 16.6004 12.8479C11.9131 10.0831 7.76369 6.73333 3.62626 3.22334C3.27803 2.92796 2.75555 2.97081 2.46012 3.319C2.16473 3.66723 2.20758 4.1897 2.55577 4.48514Z" fill="#231F20"/>
</svg>
