<svg width="165" height="23" viewBox="0 0 165 23" fill="none" xmlns="http://www.w3.org/2000/svg">
<path d="M165 3.8147e-06V9.4429C165 15.2958 162.043 21.8564 156.33 22.8664C156.034 22.9187 155.738 22.9568 155.44 22.9786C152.62 23.186 149.386 21.8223 146.536 21.6439C138.956 21.1702 131.471 21.6272 123.936 20.2803C117.288 19.0904 111.108 16.1522 104.369 15.3425C96.6227 14.4114 89.098 14.3682 81.3869 15.7445C72.9808 17.2449 64.7056 20.1882 56.1584 20.7656C44.8764 21.528 33.7505 19.5107 22.4936 19.5473C20.8355 19.5527 19.1789 19.6019 17.5241 19.6886C8.29279 20.1723 0 13.2614 0 3.93336V0L165 3.8147e-06Z" fill="#FFB750"/>
</svg>
