<svg width="201" height="28" viewBox="0 0 201 28" fill="none" xmlns="http://www.w3.org/2000/svg">
<path d="M201 4.64398e-06V11.4957C201 18.621 197.397 26.6077 190.438 27.8374C190.078 27.901 189.717 27.9474 189.355 27.9739C185.919 28.2264 181.98 26.5663 178.507 26.3491C169.273 25.7724 160.156 26.3287 150.977 24.689C142.878 23.2405 135.35 19.6635 127.14 18.6778C117.704 17.5443 108.538 17.4917 99.144 19.1673C88.9038 20.9938 78.8232 24.577 68.4112 25.2799C54.6676 26.208 41.1142 23.7522 27.4013 23.7967C25.3814 23.8033 23.3633 23.8632 21.3475 23.9687C10.1021 24.5576 0 16.1443 0 4.78844V0L201 4.64398e-06Z" fill="#FFB750"/>
</svg>
