<svg width="121" height="92" viewBox="0 0 121 92" fill="none" xmlns="http://www.w3.org/2000/svg">
<path d="M86.9014 68.6709L86.6595 78.5855L92.2679 68.7317L94.5112 70.7998L89.4527 78.92L94.8191 87.7093L92.0039 90.1423L86.6375 79.6499L86.5935 81.9004L86.8574 89.8078H83.7783L84.0422 82.4175L83.7783 69.4312L86.9014 68.6709Z" fill="white"/>
<path d="M96.4944 89.808L96.7583 82.4177L96.4944 68.8232H104.742L104.5 72.0774H99.5515L99.4196 77.4605H103.818L103.576 80.6842H99.3316L99.3096 81.9007L99.4635 86.5843H104.786L104.544 89.808H96.4944Z" fill="white"/>
<path d="M116.204 89.96L115.127 84.0295H109.87L108.704 89.8079L105.889 89.5038L107.825 82.1135L110.772 69.036L114.709 68.6406L117.546 81.6573L119.371 89.2909L116.204 89.96ZM112.729 72.5943H112.443L110.552 80.8057H114.467L112.729 72.5943Z" fill="white"/>
<path d="M40.8815 82.1242H41.3886L45.4813 90.5283L50.1434 87.78L45.7216 80.5761C46.4689 79.9675 47.0917 79.2175 47.5721 78.3234C48.2216 77.1498 48.5419 75.8571 48.5419 74.4442C48.5419 72.5225 47.9636 70.9886 46.8603 69.8258C45.7393 68.6496 44.2446 68.041 42.3585 68.041H35.9792L36.2995 81.8937L35.9614 89.8433H41.1929L40.8815 82.1242ZM41.4509 72.7511C42.1538 72.7511 42.6877 72.8757 43.0436 73.2173C43.3816 73.551 43.5061 74.067 43.5061 74.7343C43.5061 75.6827 43.3549 76.4212 42.9812 76.9345L42.9723 76.9408C42.6876 77.3447 42.2783 77.5297 41.7534 77.5297H40.9527L41.0772 72.7511H41.4509Z" fill="#B30838"/>
<path d="M73.1244 67.751C70.4197 67.751 68.1777 68.9254 66.4338 71.3062C64.7701 73.5732 63.916 76.4532 63.916 79.9577C63.916 82.7977 64.6367 85.1848 66.0513 87.127V87.1288C67.5549 89.168 69.4232 90.1627 71.6386 90.1627C74.4234 90.1627 76.6744 89.0016 78.3826 86.6644C80.0108 84.4401 80.8471 81.5218 80.8471 77.8972C80.8471 74.9923 80.1265 72.6043 78.7296 70.7226C77.2705 68.7314 75.3932 67.751 73.1244 67.751ZM75.6423 79.5227C75.6423 81.4 75.3398 82.8875 74.6992 83.9757V83.9765C74.1921 84.8565 73.4626 85.3075 72.4928 85.3075C71.523 85.3075 70.7757 84.7319 70.1707 83.6785C69.4589 82.376 69.1208 80.7291 69.1208 78.7388C69.1208 76.777 69.4055 75.3019 70.055 74.3295C70.6155 73.4949 71.3717 73.0705 72.3415 73.0705C73.6316 73.0705 74.5124 73.7823 75.0284 75.14C75.4466 76.2352 75.6423 77.697 75.6423 79.5227Z" fill="#B30838"/>
<path d="M55.6418 82.392L60.6598 90.5542L65.3931 87.1493L59.1028 78.5698L65.0283 70.6461L61.0157 67.5659L55.7664 75.2387L55.9888 67.6914L50.5795 68.7875L50.8997 81.8938L50.5616 89.8433H55.9444L55.6418 82.392Z" fill="#B30838"/>
<path d="M9.34156 77.2937L6.61901 67.708L1.09397 68.708L0.933772 81.8739L0.533447 89.843H5.50687L5.31116 81.4113L5.36449 79.4788L8.69198 91.6598L12.8915 78.9655L12.9804 81.4175L12.8469 89.843H18.0962L17.5624 81.4344L17.4557 68.1279L12.4555 67.9607L9.34156 77.2937Z" fill="#B30838"/>
<path d="M30.0183 89.3523L30.2407 90.1121L35.6323 89.1655L33.2657 80.9411L29.8225 67.8081L23.9504 68.2992L20.4094 81.3619L17.8649 89.4511L22.9361 89.9066L23.8971 86.3264H29.1197L30.0183 89.3523ZM26.7174 76.4133L27.7051 81.6119H25.7209L26.7174 76.4133Z" fill="#B30838"/>
<path fill-rule="evenodd" clip-rule="evenodd" d="M1.85055 62.4803H0.889706C0.391471 62.4803 0 62.8789 0 63.37C0 63.9207 0 64.6254 0 65.1761C0 65.6672 0.391471 66.0658 0.889706 66.0658C11.2548 66.0658 108.927 66.0658 119.292 66.0658C119.781 66.0658 120.181 65.6672 120.181 65.1761C120.181 64.6254 120.181 63.9207 120.181 63.37C120.181 62.8789 119.781 62.4803 119.292 62.4803H119.167C116.667 54.86 114.639 48.2877 112.138 40.5482C110.973 36.9324 110.412 32.2775 107.957 29.2783C106.765 27.8263 105.145 26.6634 103.455 25.5602C101.951 24.5708 100.385 23.6277 99.122 22.488C96.1326 19.8056 93.2678 16.9825 90.4474 14.1266C88.0007 11.6443 85.5451 8.99207 82.2265 7.65573C80.2247 6.84432 78.0272 6.77137 75.8296 6.73845C73.9612 6.71087 72.0929 6.72066 70.4113 6.06584C69.0501 5.53913 67.9023 4.61028 66.7279 3.69388C65.3489 2.61556 63.952 1.54879 62.3149 0.90998C59.5301 -0.176351 56.2116 -0.00819194 53.2845 0.0362934C47.4302 0.127043 40.5794 -0.205706 35.3035 2.75346C32.2251 4.47948 29.9474 7.38793 27.5185 9.86487C23.8352 13.6105 20.0539 16.8286 17.2958 21.3866C15.6321 24.1402 14.7691 27.3218 13.0786 30.0977C11.9754 31.9011 10.7654 33.6405 9.41305 35.266C8.08739 36.8541 6.5126 38.5045 5.84532 40.5055C5.22252 42.3783 5.31149 44.325 5.50723 46.2832C5.66737 47.9416 5.92545 49.6071 5.68523 51.2246C5.56957 51.9871 5.18699 52.6998 4.78662 53.4115C4.27949 54.327 3.7278 55.2345 3.38082 56.1643C2.62457 58.2097 2.24202 60.3441 1.85055 62.4803ZM116.356 62.4803C113.98 55.2061 112.005 48.8286 109.603 41.3676C109.042 39.6211 108.642 37.6184 108.081 35.6895C107.583 33.9537 106.96 32.2748 105.893 30.9714C104.861 29.7204 103.446 28.7435 101.996 27.7924C100.368 26.7275 98.695 25.6999 97.3337 24.473C94.3087 21.754 91.3994 18.8954 88.5523 16.0012C86.3548 13.7742 84.2017 11.3293 81.2301 10.1309C79.5307 9.44226 77.6535 9.43515 75.794 9.40757C73.5964 9.37465 71.4255 9.32216 69.4415 8.55434C67.8489 7.93333 66.4698 6.87546 65.0908 5.79625C63.9164 4.87807 62.742 3.94033 61.3452 3.39672C58.8718 2.43317 55.9268 2.66537 53.3289 2.70541C47.8928 2.78904 41.5048 2.33351 36.6025 5.08092C33.7465 6.68506 31.6824 9.43426 29.4225 11.735C25.8904 15.3303 22.2249 18.3927 19.5824 22.7674C17.9187 25.5237 17.0468 28.7088 15.3563 31.4883C14.1819 33.4029 12.9007 35.2491 11.4594 36.9733C10.3473 38.3141 8.94147 39.6576 8.38096 41.3462C7.88272 42.8596 7.99838 44.4353 8.15853 46.0172C8.34537 47.898 8.59453 49.7886 8.31873 51.6241C8.15858 52.6926 7.67816 53.7131 7.11765 54.7114C6.67279 55.5059 6.18345 56.2853 5.88985 57.0913C5.24036 58.8387 4.88449 60.6564 4.56419 62.4803H15.9969C18.0788 57.6003 19.2799 51.8759 19.876 46.6907C20.4276 41.8978 20.6145 36.9813 23.684 32.9723C27.5987 27.8432 34.1646 25.3137 39.4317 21.9159C40.7129 21.0894 42.1186 19.9123 43.6222 19.1498C44.7877 18.5582 46.0244 18.2059 47.3056 18.3189C48.7113 18.4425 50.0548 19.1614 51.3538 20.0209C52.4303 20.7344 53.4802 21.5449 54.5478 21.9924C59.1921 23.9382 64.4947 25.1491 69.3703 26.3609C72.5466 27.1483 76.23 27.0478 79.7354 27.3983C83.5701 27.7818 87.1911 28.6955 89.9314 31.4794C91.9421 33.5293 93.2679 36.0889 94.6558 38.573C97.1915 43.1025 99.3712 47.6729 101.48 52.415C103.01 55.8831 104.282 59.3325 106.338 62.4803H116.356ZM103.731 62.4803C102.031 59.5701 100.839 56.4552 99.4423 53.3172C97.3693 48.6382 95.2163 44.1274 92.7162 39.6584C91.4261 37.3461 90.2161 34.9457 88.3388 33.0382C85.9811 30.6368 82.8227 29.942 79.5219 29.6119C75.9008 29.2498 72.1106 29.3316 68.8365 28.5193C63.8542 27.2809 58.4358 26.0326 53.6937 24.0441C52.5015 23.5459 51.3271 22.6686 50.126 21.8768C49.1473 21.2309 48.1686 20.6276 47.1099 20.5351C45.9977 20.4372 44.9568 20.9061 43.9692 21.4996C42.7859 22.2104 41.6738 23.1188 40.6417 23.7852C35.5793 27.0495 29.209 29.3957 25.4456 34.3229C22.6341 38.0009 22.5896 42.5464 22.0914 46.9443C21.5041 52.0271 20.3475 57.6047 18.3991 62.4803H28.088C29.0844 57.0326 30.8728 51.5218 32.8213 46.4149C33.9868 43.3392 35.1611 40.2643 37.8391 38.1691C42.172 34.7749 50.5086 34.1583 55.6956 35.5943C58.0355 36.2429 60.1351 37.5436 62.4217 38.3506C65.4734 39.4298 68.7297 40.0793 71.9149 40.6736C73.374 40.9485 75.1357 40.8818 76.5236 41.4841C77.6179 41.9637 78.3742 42.8374 79.077 43.7822C79.6198 44.526 80.1269 45.3197 80.8654 45.8472C81.8885 46.5795 83.0629 46.9887 84.2195 47.4416C85.5362 47.9621 86.8263 48.5342 87.9029 49.528C89.6734 51.1659 90.5987 53.4587 91.6486 55.5717C92.823 57.9143 94.1042 60.208 95.4031 62.4803H103.731ZM93.3568 62.4803C92.2179 60.4678 91.088 58.4357 90.056 56.3662C89.104 54.4418 88.3032 52.3252 86.6929 50.834C85.7854 49.9942 84.6821 49.5368 83.57 49.0982C82.2799 48.592 80.9721 48.1124 79.8244 47.2948C78.9436 46.6595 78.3029 45.7334 77.6445 44.8392C77.1285 44.147 76.6125 43.4664 75.8118 43.115C74.5484 42.5642 72.9202 42.6746 71.5857 42.4228C68.3205 41.8115 64.9663 41.138 61.8256 40.0286C59.5836 39.2349 57.5283 37.9467 55.224 37.3096C50.4908 36.0009 42.8838 36.4769 38.9335 39.5704C36.5135 41.4592 35.5348 44.276 34.4761 47.0483C32.6077 51.9568 30.8906 57.2444 29.8941 62.4803H36.7181C37.1985 58.9224 37.2341 55.4071 37.5099 51.7798C37.5989 50.5805 37.6434 49.1632 37.9993 47.9042C38.2662 46.954 38.711 46.0919 39.4317 45.4309C40.5438 44.4095 42.0386 43.7822 43.6756 43.429C45.9889 42.9308 48.5601 42.9735 50.5619 43.0883C54.4855 43.3143 58.0444 44.6497 61.7278 45.9095C65.0019 47.0314 68.4095 47.9861 71.737 48.955C76.1588 50.2406 80.7229 50.8082 84.2195 54.1802C85.1715 55.1002 85.7231 56.2986 86.1056 57.5798C86.4437 58.7391 86.6395 59.9669 86.9064 61.0701C87.0221 61.5586 87.1822 62.023 87.3691 62.4803H93.3568ZM85.6608 62.4803C85.5451 62.1431 85.4384 61.7997 85.3494 61.4447C85.0914 60.3663 84.9045 59.1661 84.5665 58.0327C84.2729 57.0211 83.8547 56.0593 83.1073 55.3324C79.8065 52.1499 75.4648 51.706 71.2921 50.4924C67.9379 49.5173 64.5125 48.5546 61.2028 47.4247C57.6618 46.212 54.2453 44.9042 50.4641 44.6871C48.5957 44.5794 46.1757 44.5278 44.0137 44.9949C42.6703 45.2841 41.4246 45.7707 40.5171 46.6097C39.8765 47.196 39.5829 48.0235 39.405 48.8936C39.2093 49.9016 39.1737 50.9719 39.1025 51.8999C38.8356 55.4863 38.7822 58.9651 38.3374 62.4803H40.446C40.9175 60.3708 41.2645 58.2168 41.389 56.0762C41.4513 54.9685 41.478 53.7185 41.7271 52.5654C42.0029 51.2842 42.5635 50.1214 43.6845 49.3242C45.8999 47.7441 49.0316 47.414 51.6741 47.4069C54.3076 47.3998 56.7454 48.1872 59.29 48.7753C63.5072 49.7486 67.6976 50.7958 71.8703 51.9435C73.8099 52.4764 75.6517 53.158 77.5112 53.9151C78.7389 54.4133 80.0379 54.8991 81.0076 55.8342C82.6892 57.4481 83.3387 60.0799 83.6857 62.4803H85.6608ZM82.3511 62.4803C82.0575 60.4028 81.5237 58.175 80.0824 56.796C79.2372 55.9783 78.0805 55.5869 77.0129 55.1509C75.1979 54.4142 73.4007 53.7496 71.5145 53.2309C67.3596 52.0876 63.1868 51.0449 58.9874 50.0751C56.5407 49.5111 54.2097 48.7343 51.6741 48.7415C49.2986 48.7477 46.4515 48.9861 44.4586 50.4105C43.6222 51.0058 43.2397 51.8928 43.0351 52.8492C42.7948 53.9347 42.7859 55.1118 42.7236 56.1536C42.599 58.2675 42.261 60.3939 41.8162 62.4803H44.254C44.4853 60.8628 44.6988 59.1946 45.1526 57.6501C45.7754 55.5201 46.8429 53.6206 48.9515 52.3394C50.2149 51.5778 51.7008 51.3394 53.2667 51.3705C55.4465 51.4141 57.7686 51.9924 59.6814 52.2247C63.5783 52.698 67.7244 52.8982 71.4878 54.0539C73.1872 54.5753 75.2067 55.4623 76.221 57.0104C77.2442 58.5789 77.5467 60.5532 77.6445 62.4803H82.3511ZM76.4969 62.4803C76.4257 60.7694 76.1588 59.0309 75.2513 57.643C74.3883 56.3129 72.6089 55.6073 71.1497 55.1598C67.4486 54.0236 63.3648 53.8386 59.539 53.3724C57.9732 53.182 56.1137 52.7496 54.2898 52.5868C52.5904 52.4346 50.9089 52.5076 49.5566 53.3288C47.7149 54.4454 46.8074 56.1171 46.2558 57.9739C45.8376 59.4152 45.6329 60.9669 45.4194 62.4803H49.4587C49.521 61.3468 49.6455 60.1706 49.9658 59.0985C50.3662 57.7346 51.0691 56.5379 52.2791 55.7621C54.8504 54.1064 57.2971 54.6473 60.064 55.1562C62.2438 55.5584 64.4324 55.9258 66.5766 56.5193C68.0269 56.9223 70.2244 57.4855 71.2654 58.6501C72.2263 59.724 72.4754 61.1012 72.4754 62.4803H76.4969ZM71.5946 62.4803C71.6035 61.313 71.4078 60.1493 70.5981 59.2427C70.2422 58.8423 69.7173 58.5353 69.1479 58.2818C68.2137 57.8681 67.146 57.602 66.3364 57.3769C64.2189 56.7897 62.0569 56.4285 59.8949 56.0308C57.3682 55.5646 55.1172 54.9925 52.7595 56.5104C51.4694 57.3387 50.8823 58.7524 50.5976 60.2774C50.4552 60.9998 50.384 61.7481 50.3484 62.4803H51.8609C51.9232 61.9376 52.0477 61.4082 52.3057 60.8886C53.925 57.7008 58.2223 56.4419 61.4786 57.659C63.6228 58.4588 65.2955 60.4002 66.4076 62.4803H71.5946ZM65.5001 62.4803C64.4859 60.7071 63.0356 59.0958 61.2028 58.409C58.3023 57.3253 54.4589 58.4134 53.0264 61.2507C52.8218 61.6529 52.715 62.0621 52.6616 62.4803H55.7756C56.6653 60.5336 58.4892 59.0843 60.8292 60.45C61.6922 60.9482 62.2438 61.6724 62.6975 62.4803H65.5001ZM61.879 62.4803C61.5231 61.9198 61.0872 61.4242 60.4733 61.0648C58.685 60.0229 57.3148 61.0247 56.5585 62.4803H61.879Z" fill="white"/>
</svg>
