<svg width="330" height="190" viewBox="0 0 330 190" fill="none" xmlns="http://www.w3.org/2000/svg" xmlns:xlink="http://www.w3.org/1999/xlink">
<path fill-rule="evenodd" clip-rule="evenodd" d="M330.673 182.12V30C330.673 13.4315 317.242 0 300.673 0H30C13.4315 0 0 13.4315 0 30V187.51C14.9187 185.04 29.9686 183.192 45.079 183.143C67.6387 183.071 89.9359 187.077 112.546 185.563C129.675 184.416 146.259 178.571 163.106 175.591C178.56 172.858 193.64 172.943 209.164 174.793C222.669 176.401 235.055 182.236 248.378 184.599C263.479 187.274 278.478 186.366 293.669 187.307C299.382 187.661 305.863 190.369 311.515 189.958C318.167 189.474 324.627 184.963 330.673 182.12Z" fill="white"/>
</svg>
