<svg width="28" height="16" viewBox="0 0 28 16" fill="none" xmlns="http://www.w3.org/2000/svg">
<path fill-rule="evenodd" clip-rule="evenodd" d="M0.934728 11.3136C6.24381 10.7311 11.4788 9.7424 16.7211 8.73882C20.2067 8.0715 23.667 7.27435 27.2195 7.07255C27.6754 7.04669 28.0245 6.65557 27.9986 6.19963C27.9727 5.74376 27.5816 5.39462 27.1257 5.42054C23.5001 5.62642 19.9673 6.4326 16.4099 7.11364C11.2109 8.10894 6.01946 9.09107 0.754227 9.66876C0.300359 9.71854 -0.0277523 10.1275 0.0220953 10.5814C0.071874 11.0353 0.48079 11.3634 0.934728 11.3136Z" fill="white"/>
<path fill-rule="evenodd" clip-rule="evenodd" d="M6.74226 15.13C9.52332 15.13 12.3288 14.7338 15.0957 14.493C19.1544 14.1396 23.22 13.8516 27.2014 12.9386C27.6465 12.8366 27.925 12.3923 27.8229 11.9473C27.7209 11.5022 27.2767 11.2237 26.8315 11.3258C22.9249 12.2216 18.9347 12.4978 14.9522 12.8445C12.2327 13.0812 9.47568 13.4753 6.74226 13.4753C6.28564 13.4753 5.91492 13.8461 5.91492 14.3027C5.91492 14.7593 6.28564 15.13 6.74226 15.13Z" fill="white"/>
<path fill-rule="evenodd" clip-rule="evenodd" d="M6.37818 4.91418C11.8801 4.46279 17.2745 3.88186 22.636 2.49874C23.0781 2.38471 23.3445 1.93311 23.2304 1.49096C23.1164 1.04882 22.6648 0.782411 22.2226 0.896516C16.9532 2.25591 11.6504 2.82134 6.24291 3.265C5.7878 3.30237 5.44866 3.70212 5.48596 4.15723C5.52333 4.61233 5.92307 4.95148 6.37818 4.91418Z" fill="white"/>
</svg>
