<svg width="330" height="55" viewBox="0 0 330 55" fill="none" xmlns="http://www.w3.org/2000/svg">
<path d="M37.3288 45.02L37.3093 45.519L37.3288 45.02C35.0797 44.932 32.8308 44.874 30.5824 44.84C14.0468 44.591 0.5 31.636 0.5 15.134V-301.5H329.5V23.301C329.5 37.69 319.198 50.392 304.984 52.37C299.331 53.157 293.666 53.706 287.978 53.779C280.014 53.881 272.15 52.988 264.279 51.892C262.331 51.62 260.382 51.336 258.431 51.052C252.509 50.19 246.569 49.324 240.593 48.801C237.511 48.531 234.422 48.255 231.327 47.979C204.41 45.578 177.052 43.138 150.1 43.99C140.552 44.292 131.026 45.394 121.53 46.492C120.586 46.601 119.642 46.71 118.699 46.818C108.257 48.017 97.8486 49.115 87.4345 49.06C79.0376 49.016 70.7291 48.173 62.4041 47.256C61.5965 47.167 60.7887 47.077 59.9807 46.987C52.4666 46.153 44.9307 45.317 37.3288 45.02Z" fill="white"/>
<path d="M37.3288 45.02L37.3093 45.519L37.3288 45.02ZM37.3288 45.02C35.0797 44.932 32.8308 44.874 30.5824 44.84C14.0468 44.591 0.5 31.636 0.5 15.134V-301.5H329.5V23.301C329.5 37.69 319.198 50.392 304.984 52.37C299.331 53.157 293.666 53.706 287.978 53.779C280.014 53.881 272.15 52.988 264.279 51.892C262.331 51.62 260.382 51.336 258.431 51.052C252.509 50.19 246.569 49.324 240.593 48.801C237.511 48.531 234.422 48.255 231.327 47.979C204.41 45.578 177.052 43.138 150.1 43.99C140.552 44.292 131.026 45.394 121.53 46.492C120.586 46.601 119.642 46.71 118.699 46.818C108.257 48.017 97.8486 49.115 87.4345 49.06C79.0376 49.016 70.7291 48.173 62.4041 47.256C61.5965 47.167 60.7887 47.077 59.9807 46.987C52.4666 46.153 44.9307 45.317 37.3288 45.02Z" stroke="#FFB750"/>
</svg>
