<svg width="330" height="45" viewBox="0 0 330 45" fill="none" xmlns="http://www.w3.org/2000/svg">
<path d="M0.5 6.90601V-309.5L329.5 -309.5V17.892C329.5 23.651 328.039 29.749 325.183 34.644C322.328 39.536 318.103 43.191 312.573 44.166C311.997 44.267 311.421 44.341 310.845 44.383C308.105 44.584 305.144 44.025 302.107 43.351C301.666 43.254 301.222 43.153 300.778 43.053C298.194 42.468 295.578 41.876 293.103 41.721C287.938 41.4 282.788 41.293 277.66 41.186C275.253 41.136 272.85 41.086 270.453 41.014C262.94 40.788 255.459 40.346 247.961 39.009C241.991 37.944 236.21 36.172 230.396 34.391C229.771 34.199 229.146 34.007 228.519 33.816C222.083 31.853 215.585 29.972 208.798 29.159C193.268 27.298 178.167 27.21 162.686 29.965C156.323 31.097 149.992 32.642 143.673 34.184C141.626 34.683 139.581 35.182 137.536 35.667C129.165 37.651 120.787 39.398 112.283 39.97C101.039 40.728 89.8647 40.105 78.6691 39.299C76.9931 39.178 75.3164 39.053 73.639 38.928C64.1205 38.219 54.5763 37.509 44.9856 37.54C41.6606 37.551 38.3391 37.649 35.022 37.822C16.8058 38.774 0.5 25.182 0.5 6.90601Z" fill="white" stroke="#FFB750"/>
</svg>
