<svg width="330" height="54" viewBox="0 0 330 54" fill="none" xmlns="http://www.w3.org/2000/svg">
<path d="M329.5 -301.5V10.224C329.5 26.841 315.783 40.111 299.165 39.704C297.584 39.665 296.002 39.629 294.421 39.595C283.608 39.36 272.864 39.985 262.132 40.609C256.174 40.955 250.219 41.302 244.257 41.501C236.654 41.754 229.038 41.716 221.412 41.677C220.239 41.671 219.066 41.665 217.892 41.66C209.094 41.624 200.285 41.647 191.498 42.181C180.15 42.871 168.929 44.497 157.722 46.12C152.524 46.873 147.329 47.625 142.126 48.284C100.925 53.494 61.7177 56.232 22.5571 49.555C9.44425 47.319 0.5 35.487 0.5 22.128V-301.5L329.5 -301.5Z" fill="white" stroke="white"/>
</svg>
