<svg width="94" height="72" viewBox="0 0 94 72" fill="none" xmlns="http://www.w3.org/2000/svg">
<path d="M67.9396 53.8577L67.7505 61.6089L72.1351 53.9052L73.889 55.522L69.9342 61.8704L74.1297 68.7419L71.9288 70.644L67.7333 62.4411L67.6989 64.2006L67.9052 70.3825H65.498L65.7043 64.6048L65.498 54.4521L67.9396 53.8577Z" fill="#231F20"/>
<path d="M75.4393 70.3823L75.6457 64.6045L75.4393 53.9763H81.8873L81.6982 56.5204H77.8294L77.7262 60.7289H81.1652L80.976 63.2492H77.6575L77.6403 64.2003L77.7606 67.8619H81.9217L81.7326 70.3823H75.4393Z" fill="#231F20"/>
<path d="M90.8488 70.5015L90.0062 65.865H85.8967L84.9854 70.3826L82.7845 70.1448L84.2976 64.3671L86.6017 54.1431L89.6796 53.834L91.8977 64.0104L93.3248 69.9784L90.8488 70.5015ZM88.132 56.925H87.9085L86.4298 63.3447H89.4904L88.132 56.925Z" fill="#231F20"/>
<path d="M31.961 64.3747H32.3575L35.5572 70.9451L39.202 68.7965L35.745 63.1644C36.3293 62.6887 36.8162 62.1023 37.1918 61.4033C37.6995 60.4858 37.9499 59.4751 37.9499 58.3706C37.9499 56.8681 37.4978 55.6689 36.6353 54.7598C35.7589 53.8403 34.5903 53.3645 33.1157 53.3645H28.1284L28.3788 64.1946L28.1145 70.4095H32.2045L31.961 64.3747ZM32.4062 57.0469C32.9557 57.0469 33.3731 57.1443 33.6513 57.4114C33.9156 57.6722 34.013 58.0756 34.013 58.5973C34.013 59.3388 33.8947 59.9161 33.6026 60.3175L33.5956 60.3223C33.373 60.6381 33.0531 60.7828 32.6427 60.7828H32.0167L32.1141 57.0469H32.4062Z" fill="#B30838"/>
<path d="M57.1687 53.1377C55.0541 53.1377 53.3013 54.0559 51.9379 55.9172C50.6372 57.6895 49.9695 59.9411 49.9695 62.681C49.9695 64.9012 50.5329 66.7675 51.6389 68.2859V68.2873C52.8144 69.8816 54.275 70.6592 56.007 70.6592C58.1842 70.6592 59.944 69.7515 61.2795 67.9242C62.5524 66.1853 63.2063 63.9038 63.2063 61.07C63.2063 58.799 62.6429 56.9321 61.5508 55.4609C60.4101 53.9042 58.9424 53.1377 57.1687 53.1377ZM59.1371 62.3408C59.1371 63.8085 58.9006 64.9715 58.3998 65.8222V65.8229C58.0034 66.5108 57.433 66.8635 56.6748 66.8635C55.9166 66.8635 55.3324 66.4134 54.8594 65.5899C54.3029 64.5715 54.0386 63.284 54.0386 61.728C54.0386 60.1943 54.2612 59.041 54.769 58.2808C55.2072 57.6283 55.7984 57.2965 56.5565 57.2965C57.5651 57.2965 58.2538 57.853 58.6572 58.9144C58.9841 59.7707 59.1371 60.9135 59.1371 62.3408Z" fill="#B30838"/>
<path d="M43.5006 64.5842L47.4236 70.9654L51.1241 68.3035L46.2064 61.596L50.8389 55.4012L47.7019 52.9932L43.598 58.9918L43.7719 53.0912L39.5428 53.9482L39.7932 64.1947L39.5289 70.4097H43.7371L43.5006 64.5842Z" fill="#B30838"/>
<path d="M7.30301 60.5986L5.17451 53.1045L0.855024 53.8863L0.729783 64.1794L0.416809 70.4097H4.30504L4.15204 63.8177L4.19373 62.3069L6.79517 71.83L10.0783 61.9056L10.1479 63.8226L10.0435 70.4097H14.1474L13.7301 63.8358L13.6466 53.4328L9.73752 53.302L7.30301 60.5986Z" fill="#B30838"/>
<path d="M23.4684 70.0257L23.6423 70.6197L27.8575 69.8796L26.0073 63.4497L23.3153 53.1824L18.7246 53.5663L15.9562 63.7787L13.9669 70.1029L17.9316 70.459L18.6829 67.66H22.7659L23.4684 70.0257ZM20.8878 59.91L21.6599 63.9742H20.1087L20.8878 59.91Z" fill="#B30838"/>
<path fill-rule="evenodd" clip-rule="evenodd" d="M1.44676 49.0171H0.695574C0.306052 49.0171 0 49.3288 0 49.7127C0 50.1433 0 50.6942 0 51.1247C0 51.5087 0.306052 51.8203 0.695574 51.8203C8.79901 51.8203 85.1591 51.8203 93.2625 51.8203C93.6451 51.8203 93.9581 51.5087 93.9581 51.1247C93.9581 50.6942 93.9581 50.1433 93.9581 49.7127C93.9581 49.3288 93.6451 49.0171 93.2625 49.0171H93.1651C91.2105 43.0595 89.6246 37.9213 87.6701 31.8705C86.7589 29.0437 86.3207 25.4045 84.4009 23.0597C83.4688 21.9245 82.2028 21.0154 80.8812 20.1529C79.7057 19.3794 78.4815 18.6421 77.4938 17.7511C75.1567 15.6539 72.9169 13.4469 70.712 11.2141C68.7991 9.27345 66.8794 7.19994 64.2849 6.15519C62.7198 5.52082 61.0018 5.46379 59.2837 5.43806C57.823 5.41649 56.3623 5.42415 55.0477 4.9122C53.9835 4.50042 53.0862 3.77425 52.168 3.0578C51.0899 2.21477 49.9978 1.38077 48.7179 0.881346C46.5408 0.0320502 43.9464 0.163517 41.6579 0.198296C37.081 0.269245 31.7251 0.0091006 27.6003 2.32258C25.1936 3.67199 23.413 5.94582 21.514 7.8823C18.6344 10.8107 15.6782 13.3266 13.5219 16.89C12.2212 19.0428 11.5465 21.5301 10.2249 23.7003C9.36239 25.1103 8.41641 26.4701 7.35914 27.7409C6.32273 28.9825 5.09156 30.2728 4.56988 31.8372C4.08298 33.3013 4.15253 34.8233 4.30556 36.3542C4.43076 37.6508 4.63253 38.9529 4.44473 40.2174C4.3543 40.8135 4.0552 41.3707 3.74219 41.9272C3.34571 42.6429 2.9144 43.3524 2.64313 44.0793C2.05189 45.6784 1.75282 47.3471 1.44676 49.0171ZM90.9671 49.0171C89.1099 43.3301 87.5657 38.3443 85.6877 32.5112C85.2495 31.1458 84.9365 29.58 84.4983 28.072C84.1088 26.715 83.6218 25.4024 82.7871 24.3834C81.9802 23.4054 80.8744 22.6417 79.7406 21.8981C78.4677 21.0655 77.1599 20.2621 76.0957 19.3029C73.7307 17.1773 71.4562 14.9424 69.2304 12.6797C67.5123 10.9387 65.829 9.02721 63.5058 8.09027C62.1773 7.5519 60.7096 7.54634 59.2559 7.52478C57.5378 7.49904 55.8406 7.458 54.2895 6.85772C53.0444 6.37221 51.9662 5.54517 50.8881 4.70144C49.97 3.98361 49.0518 3.25048 47.9598 2.82548C46.0261 2.07218 43.7237 2.25372 41.6926 2.28502C37.4427 2.3504 32.4485 1.99427 28.6159 4.1422C26.3831 5.39632 24.7693 7.54564 23.0026 9.3444C20.2412 12.1552 17.3754 14.5494 15.3096 17.9695C14.0089 20.1244 13.3272 22.6145 12.0056 24.7875C11.0875 26.2844 10.0858 27.7277 8.95899 29.0757C8.08953 30.124 6.99046 31.1743 6.55225 32.4945C6.16273 33.6777 6.25315 34.9095 6.37836 36.1462C6.52443 37.6167 6.71922 39.0948 6.5036 40.5298C6.37839 41.3651 6.0028 42.163 5.56459 42.9434C5.2168 43.5645 4.83423 44.1739 4.60469 44.8041C4.09693 46.1702 3.8187 47.5912 3.5683 49.0171H12.5064C14.134 45.2019 15.0731 40.7266 15.5391 36.6728C15.9703 32.9257 16.1164 29.082 18.5162 25.9477C21.5767 21.9378 26.71 19.9602 30.8278 17.3038C31.8294 16.6577 32.9284 15.7374 34.1039 15.1413C35.0151 14.6788 35.982 14.4033 36.9836 14.4916C38.0826 14.5883 39.133 15.1504 40.1485 15.8223C40.9901 16.3801 41.8109 17.0138 42.6456 17.3637C46.2765 18.8849 50.4221 19.8316 54.2339 20.7789C56.7171 21.3945 59.5968 21.3159 62.3373 21.59C65.3352 21.8898 68.1662 22.6041 70.3086 24.7806C71.8806 26.3832 72.917 28.3843 74.0021 30.3264C75.9845 33.8675 77.6886 37.4407 79.3371 41.1481C80.5335 43.8595 81.5281 46.5562 83.1349 49.0171H90.9671ZM81.0969 49.0171C79.7684 46.7419 78.8363 44.3067 77.7442 41.8534C76.1235 38.1954 74.4403 34.6688 72.4857 31.175C71.4771 29.3672 70.5311 27.4905 69.0635 25.9992C67.2202 24.1219 64.751 23.5786 62.1704 23.3206C59.3394 23.0375 56.3762 23.1015 53.8165 22.4664C49.9213 21.4982 45.6853 20.5223 41.9779 18.9677C41.0458 18.5781 40.1276 17.8923 39.1886 17.2732C38.4235 16.7683 37.6583 16.2966 36.8306 16.2243C35.9611 16.1478 35.1473 16.5144 34.3752 16.9783C33.4501 17.5341 32.5806 18.2443 31.7738 18.7652C27.8159 21.3173 22.8357 23.1515 19.8934 27.0036C17.6954 29.8791 17.6606 33.4328 17.2711 36.871C16.812 40.8448 15.9077 45.2054 14.3844 49.0171H21.9592C22.7383 44.7581 24.1364 40.4498 25.6597 36.4572C26.5709 34.0526 27.489 31.6487 29.5827 30.0106C32.9701 27.357 39.4877 26.8749 43.5429 27.9976C45.3723 28.5047 47.0138 29.5216 48.8014 30.1525C51.1872 30.9962 53.733 31.504 56.2232 31.9686C57.3639 32.1836 58.7412 32.1314 59.8263 32.6023C60.6819 32.9772 61.2731 33.6603 61.8226 34.399C62.2469 34.9805 62.6434 35.6009 63.2207 36.0134C64.0206 36.5858 64.9387 36.9058 65.8429 37.2599C66.8724 37.6668 67.881 38.114 68.7226 38.891C70.1068 40.1715 70.8303 41.964 71.6511 43.616C72.5692 45.4475 73.5708 47.2406 74.5864 49.0171H81.0969ZM72.9865 49.0171C72.0962 47.4437 71.2128 45.8551 70.406 44.2372C69.6617 42.7326 69.0356 41.0779 67.7767 39.9121C67.0672 39.2555 66.2047 38.8979 65.3352 38.555C64.3266 38.1592 63.3041 37.7843 62.4069 37.1451C61.7182 36.6484 61.2174 35.9244 60.7026 35.2253C60.2992 34.6841 59.8958 34.152 59.2698 33.8773C58.2821 33.4467 57.0092 33.533 55.9658 33.3361C53.4131 32.8583 50.7908 32.3317 48.3354 31.4643C46.5826 30.8439 44.9758 29.8367 43.1742 29.3387C39.4738 28.3155 33.5267 28.6876 30.4383 31.1061C28.5464 32.5828 27.7812 34.785 26.9535 36.9524C25.4928 40.7899 24.1503 44.9237 23.3713 49.0171H28.7063C29.0819 46.2355 29.1097 43.4873 29.3253 40.6515C29.3949 39.7138 29.4297 38.6058 29.7079 37.6216C29.9166 36.8787 30.2644 36.2047 30.8278 35.6879C31.6973 34.8893 32.8658 34.399 34.1457 34.1228C35.9542 33.7333 37.9644 33.7667 39.5294 33.8564C42.5969 34.0331 45.3792 35.0771 48.2589 36.0621C50.8186 36.9392 53.4827 37.6855 56.0841 38.443C59.5411 39.4481 63.1093 39.8919 65.8429 42.5281C66.5872 43.2474 67.0185 44.1843 67.3176 45.1859C67.5819 46.0923 67.7349 47.0521 67.9436 47.9147C68.034 48.2965 68.1592 48.6596 68.3053 49.0171H72.9865ZM66.9698 49.0171C66.8793 48.7535 66.7959 48.485 66.7263 48.2075C66.5246 47.3645 66.3785 46.4261 66.1142 45.54C65.8847 44.7491 65.5578 43.9972 64.9735 43.4289C62.3929 40.9408 58.9986 40.5937 55.7363 39.645C53.114 38.8826 50.436 38.13 47.8485 37.2466C45.0801 36.2986 42.4091 35.2761 39.4529 35.1064C37.9922 35.0222 36.1003 34.9818 34.41 35.347C33.3597 35.5731 32.3859 35.9536 31.6764 36.6095C31.1756 37.0679 30.946 37.7148 30.8069 38.395C30.6539 39.1831 30.6261 40.0199 30.5704 40.7454C30.3618 43.5492 30.32 46.2689 29.9722 49.0171H31.6208C31.9894 47.3679 32.2606 45.6839 32.358 44.0104C32.4067 43.1444 32.4276 42.1671 32.6223 41.2657C32.838 40.264 33.2762 39.3549 34.1527 38.7317C35.8846 37.4963 38.333 37.2383 40.3989 37.2327C42.4578 37.2272 44.3637 37.8428 46.353 38.3025C49.6501 39.0635 52.9261 39.8822 56.1884 40.7795C57.7047 41.1961 59.1446 41.7289 60.5984 42.3209C61.5583 42.7104 62.5738 43.0902 63.3319 43.8212C64.6466 45.083 65.1543 47.1405 65.4256 49.0171H66.9698ZM64.3823 49.0171C64.1527 47.393 63.7354 45.6513 62.6086 44.5731C61.9478 43.9339 61.0435 43.6278 60.2088 43.287C58.7898 42.7111 57.3848 42.1915 55.9102 41.786C52.6619 40.8921 49.3996 40.0769 46.1165 39.3188C44.2037 38.8778 42.3813 38.2705 40.3989 38.2761C38.5417 38.281 36.3159 38.4674 34.7578 39.581C34.104 40.0463 33.8049 40.7398 33.6449 41.4876C33.4571 42.3362 33.4501 43.2564 33.4014 44.0709C33.304 45.7236 33.0398 47.386 32.692 49.0171H34.5978C34.7787 47.7526 34.9456 46.4484 35.3004 45.2409C35.7873 43.5757 36.6219 42.0906 38.2704 41.089C39.2581 40.4936 40.4198 40.3072 41.644 40.3315C43.3482 40.3656 45.1636 40.8177 46.6591 40.9993C49.7057 41.3693 52.9471 41.5258 55.8893 42.4294C57.2179 42.837 58.7968 43.5305 59.5897 44.7408C60.3897 45.967 60.6261 47.5105 60.7026 49.0171H64.3823ZM59.8054 49.0171C59.7498 47.6796 59.5411 46.3204 58.8316 45.2353C58.1569 44.1954 56.7658 43.6438 55.625 43.294C52.7314 42.4057 49.5387 42.261 46.5477 41.8965C45.3235 41.7477 43.8698 41.4096 42.4438 41.2824C41.1153 41.1634 39.8007 41.2205 38.7434 41.8625C37.3036 42.7354 36.5941 44.0424 36.1629 45.4941C35.8359 46.6209 35.6759 47.834 35.509 49.0171H38.6669C38.7156 48.131 38.813 47.2114 39.0634 46.3733C39.3764 45.3069 39.9259 44.3714 40.8719 43.7649C42.8821 42.4704 44.795 42.8933 46.9582 43.2912C48.6623 43.6056 50.3734 43.8928 52.0497 44.3568C53.1835 44.6719 54.9016 45.1122 55.7154 46.0227C56.4667 46.8623 56.6614 47.939 56.6614 49.0171H59.8054ZM55.9728 49.0171C55.9797 48.1045 55.8267 47.1947 55.1938 46.486C54.9155 46.1729 54.5051 45.933 54.06 45.7347C53.3296 45.4113 52.4949 45.2033 51.8619 45.0273C50.2065 44.5683 48.5162 44.2859 46.826 43.9749C44.8506 43.6104 43.0907 43.1632 41.2475 44.3498C40.2389 44.9974 39.7799 46.1027 39.5573 47.2949C39.446 47.8597 39.3903 48.4447 39.3625 49.0171H40.5449C40.5936 48.5928 40.691 48.179 40.8927 47.7728C42.1587 45.2805 45.5183 44.2963 48.0641 45.2478C49.7405 45.8731 51.0482 47.3909 51.9176 49.0171H55.9728ZM51.2081 49.0171C50.4152 47.6309 49.2813 46.3712 47.8485 45.8342C45.5809 44.987 42.576 45.8377 41.4562 48.0559C41.2962 48.3703 41.2127 48.6902 41.171 49.0171H43.6055C44.301 47.4952 45.727 46.3621 47.5564 47.4298C48.2311 47.8194 48.6623 48.3856 49.0171 49.0171H51.2081ZM48.3771 49.0171C48.0989 48.5789 47.7581 48.1915 47.2781 47.9105C45.88 47.096 44.8088 47.8792 44.2176 49.0171H48.3771Z" fill="#231F20"/>
</svg>
