<svg width="44" height="34" viewBox="0 0 44 34" fill="none" xmlns="http://www.w3.org/2000/svg">
<path d="M31.7868 25.3552L31.6983 28.9818L33.7497 25.3775L34.5703 26.1339L32.72 29.1041L34.6829 32.3191L33.6532 33.209L31.6902 29.3711L31.6742 30.1943L31.7707 33.0867H30.6444L30.7409 30.3834L30.6444 25.6333L31.7868 25.3552Z" fill="#231F20"/>
<path d="M35.2955 33.0865L35.3921 30.3832L35.2955 25.4106H38.3124L38.2239 26.601H36.4138L36.3655 28.57H37.9745L37.886 29.7492H36.3333L36.3253 30.1941L36.3816 31.9073H38.3284L38.24 33.0865H35.2955Z" fill="#231F20"/>
<path d="M42.5052 33.1422L42.111 30.9729H40.1883L39.7619 33.0866L38.7322 32.9753L39.4401 30.2721L40.5181 25.4886L41.9582 25.344L42.9959 30.1052L43.6637 32.8975L42.5052 33.1422ZM41.2341 26.7902H41.1295L40.4377 29.7937H41.8697L41.2341 26.7902Z" fill="#231F20"/>
<path d="M14.9535 30.2759H15.139L16.636 33.3499L18.3413 32.3447L16.7239 29.7096C16.9972 29.487 17.225 29.2127 17.4008 28.8856C17.6383 28.4563 17.7555 27.9835 17.7555 27.4667C17.7555 26.7637 17.544 26.2027 17.1404 25.7773C16.7304 25.3471 16.1836 25.1245 15.4937 25.1245H13.1603L13.2775 30.1916L13.1538 33.0993H15.0674L14.9535 30.2759ZM15.1618 26.8474C15.4189 26.8474 15.6141 26.8929 15.7443 27.0179C15.868 27.1399 15.9135 27.3287 15.9135 27.5728C15.9135 27.9197 15.8582 28.1898 15.7215 28.3776L15.7183 28.3799C15.6141 28.5276 15.4644 28.5953 15.2724 28.5953H14.9795L15.0251 26.8474H15.1618Z" fill="#231F20"/>
<path d="M26.7475 25.0181C25.7582 25.0181 24.9381 25.4476 24.3002 26.3185C23.6917 27.1477 23.3793 28.2012 23.3793 29.4831C23.3793 30.5219 23.6429 31.395 24.1603 32.1054V32.1061C24.7103 32.852 25.3937 33.2158 26.204 33.2158C27.2227 33.2158 28.046 32.7911 28.6709 31.9362C29.2664 31.1226 29.5723 30.0552 29.5723 28.7294C29.5723 27.6668 29.3087 26.7933 28.7978 26.105C28.2641 25.3767 27.5774 25.0181 26.7475 25.0181ZM27.6685 29.3239C27.6685 30.0106 27.5579 30.5547 27.3236 30.9527V30.9531C27.1381 31.2749 26.8712 31.4399 26.5165 31.4399C26.1618 31.4399 25.8884 31.2294 25.6671 30.844C25.4068 30.3676 25.2831 29.7652 25.2831 29.0372C25.2831 28.3196 25.3872 27.7801 25.6248 27.4244C25.8298 27.1191 26.1064 26.9639 26.4612 26.9639C26.933 26.9639 27.2552 27.2242 27.444 27.7208C27.5969 28.1214 27.6685 28.6561 27.6685 29.3239Z" fill="#231F20"/>
<path d="M20.3526 30.3735L22.1881 33.3591L23.9194 32.1136L21.6186 28.9754L23.786 26.0771L22.3183 24.9504L20.3982 27.757L20.4795 24.9963L18.5009 25.3973L18.6181 30.1913L18.4944 33.0991H20.4633L20.3526 30.3735Z" fill="#231F20"/>
<path d="M3.4169 28.5092L2.42105 25.0029L0.400095 25.3687L0.341499 30.1845L0.195068 33.0995H2.01425L1.94266 30.0153L1.96217 29.3085L3.1793 33.764L4.71539 29.1207L4.74793 30.0176L4.69911 33.0995H6.61919L6.42394 30.0238L6.38489 25.1565L4.55593 25.0954L3.4169 28.5092Z" fill="#231F20"/>
<path d="M10.9801 32.9198L11.0615 33.1977L13.0336 32.8514L12.168 29.8431L10.9085 25.0393L8.76065 25.2189L7.46541 29.997L6.53467 32.9559L8.38964 33.1225L8.74114 31.8129H10.6515L10.9801 32.9198ZM9.77275 28.1869L10.134 30.0885H9.40826L9.77275 28.1869Z" fill="#231F20"/>
<path fill-rule="evenodd" clip-rule="evenodd" d="M0.676894 23.0904H0.325437C0.143192 23.0904 0 23.2362 0 23.4158C0 23.6173 0 23.875 0 24.0765C0 24.2561 0.143192 24.4019 0.325437 24.4019C4.11678 24.4019 39.8432 24.4019 43.6346 24.4019C43.8136 24.4019 43.96 24.2561 43.96 24.0765C43.96 23.875 43.96 23.6173 43.96 23.4158C43.96 23.2362 43.8136 23.0904 43.6346 23.0904H43.589C42.6745 20.303 41.9325 17.899 41.018 15.068C40.5917 13.7455 40.3867 12.0428 39.4885 10.9457C39.0524 10.4146 38.4601 9.98928 37.8418 9.58574C37.2918 9.22385 36.719 8.87889 36.2569 8.462C35.1634 7.48081 34.1155 6.4482 33.0839 5.40355C32.1889 4.49558 31.2907 3.52545 30.0769 3.03664C29.3446 2.73984 28.5408 2.71316 27.737 2.70112C27.0536 2.69103 26.3702 2.69461 25.7551 2.45509C25.2572 2.26243 24.8373 1.92268 24.4078 1.58748C23.9033 1.19305 23.3924 0.802844 22.7936 0.569181C21.775 0.171822 20.5611 0.233332 19.4904 0.249604C17.349 0.282798 14.8432 0.161085 12.9133 1.24349C11.7873 1.87484 10.9542 2.93869 10.0657 3.8447C8.71843 5.21479 7.33533 6.3919 6.32647 8.05911C5.71791 9.06634 5.40224 10.2301 4.78391 11.2455C4.38036 11.9051 3.93777 12.5414 3.44311 13.1359C2.95821 13.7168 2.38218 14.3205 2.1381 15.0524C1.9103 15.7375 1.94284 16.4495 2.01444 17.1658C2.07301 17.7724 2.16741 18.3816 2.07955 18.9733C2.03724 19.2522 1.8973 19.5129 1.75085 19.7732C1.56535 20.1081 1.36356 20.44 1.23664 20.7801C0.960015 21.5283 0.820087 22.309 0.676894 23.0904ZM42.5606 23.0904C41.6917 20.4296 40.9692 18.0969 40.0905 15.3678C39.8855 14.7289 39.7391 13.9964 39.5341 13.2908C39.3518 12.6559 39.124 12.0418 38.7335 11.565C38.356 11.1075 37.8386 10.7502 37.3081 10.4023C36.7125 10.0127 36.1007 9.63683 35.6028 9.18805C34.4963 8.19352 33.4321 7.14789 32.3907 6.08924C31.5869 5.27467 30.7993 4.38037 29.7124 3.94201C29.0908 3.69012 28.4041 3.68752 27.7239 3.67743C26.9201 3.66539 26.126 3.64619 25.4003 3.36534C24.8178 3.13818 24.3134 2.75124 23.8089 2.35648C23.3794 2.02063 22.9498 1.67762 22.4389 1.47878C21.5341 1.12633 20.4569 1.21127 19.5067 1.22591C17.5182 1.25651 15.1816 1.08988 13.3885 2.09483C12.3438 2.68159 11.5888 3.68719 10.7622 4.52877C9.47019 5.84386 8.12942 6.96402 7.16287 8.56419C6.5543 9.57239 6.23537 10.7375 5.61704 11.7541C5.18747 12.4545 4.71884 13.1297 4.19163 13.7604C3.78483 14.2509 3.27062 14.7423 3.06559 15.36C2.88335 15.9135 2.92565 16.4899 2.98423 17.0685C3.05257 17.7565 3.14371 18.448 3.04283 19.1194C2.98425 19.5103 2.80852 19.8835 2.60349 20.2487C2.44078 20.5393 2.26178 20.8244 2.15439 21.1192C1.91682 21.7584 1.78665 22.4232 1.66949 23.0904H5.85135C6.61287 21.3054 7.05221 19.2115 7.27025 17.3149C7.47202 15.5617 7.54037 13.7634 8.66313 12.297C10.095 10.4208 12.4968 9.49559 14.4233 8.25275C14.892 7.95041 15.4062 7.51986 15.9561 7.24096C16.3825 7.02455 16.8348 6.89567 17.3035 6.937C17.8176 6.98224 18.3091 7.2452 18.7842 7.55957C19.178 7.82057 19.562 8.11704 19.9525 8.28073C21.6513 8.99246 23.5909 9.43538 25.3743 9.87863C26.5361 10.1666 27.8834 10.1299 29.1656 10.2581C30.5683 10.3984 31.8928 10.7326 32.8951 11.7509C33.6306 12.5007 34.1156 13.437 34.6232 14.3456C35.5507 16.0024 36.348 17.6741 37.1193 19.4087C37.6791 20.6773 38.1444 21.939 38.8962 23.0904H42.5606ZM37.9427 23.0904C37.3211 22.0259 36.885 20.8865 36.374 19.7387C35.6158 18.0272 34.8282 16.3773 33.9138 14.7426C33.4419 13.8968 32.9993 13.0188 32.3126 12.321C31.4502 11.4427 30.2949 11.1885 29.0875 11.0678C27.763 10.9353 26.3767 10.9653 25.179 10.6681C23.3566 10.2151 21.3747 9.75854 19.6401 9.03119C19.204 8.84895 18.7744 8.52807 18.3351 8.23843C17.9771 8.00216 17.6191 7.78151 17.2319 7.74767C16.8251 7.71187 16.4443 7.88338 16.0831 8.10045C15.6502 8.36047 15.2434 8.69274 14.8659 8.93649C13.0142 10.1305 10.6841 10.9887 9.30749 12.791C8.27911 14.1363 8.26283 15.799 8.08058 17.4076C7.8658 19.2668 7.44272 21.307 6.73001 23.0904H10.274C10.6385 21.0977 11.2927 19.082 12.0054 17.214C12.4317 16.0889 12.8612 14.9642 13.8408 14.1978C15.4257 12.9563 18.475 12.7308 20.3723 13.256C21.2282 13.4933 21.9963 13.969 22.8326 14.2642C23.9489 14.659 25.14 14.8965 26.305 15.1139C26.8388 15.2145 27.4831 15.1901 27.9908 15.4104C28.3911 15.5858 28.6677 15.9054 28.9248 16.251C29.1233 16.5231 29.3088 16.8134 29.579 17.0064C29.9532 17.2742 30.3828 17.4239 30.8058 17.5895C31.2875 17.7799 31.7594 17.9892 32.1531 18.3527C32.8008 18.9518 33.1392 19.7905 33.5233 20.5634C33.9528 21.4202 34.4215 22.2592 34.8966 23.0904H37.9427ZM34.1481 23.0904C33.7315 22.3543 33.3182 21.611 32.9407 20.854C32.5925 20.1501 32.2996 19.3759 31.7105 18.8304C31.3786 18.5232 30.9751 18.3559 30.5683 18.1955C30.0964 18.0103 29.618 17.8349 29.1982 17.5358C28.876 17.3035 28.6417 16.9647 28.4008 16.6376C28.2121 16.3844 28.0234 16.1355 27.7305 16.0069C27.2683 15.8055 26.6728 15.8458 26.1846 15.7537C24.9903 15.5302 23.7634 15.2838 22.6146 14.878C21.7945 14.5877 21.0427 14.1165 20.1999 13.8835C18.4685 13.4047 15.6861 13.5788 14.2411 14.7104C13.3559 15.4013 12.9979 16.4316 12.6107 17.4457C11.9273 19.2411 11.2992 21.1752 10.9347 23.0904H13.4307C13.6065 21.789 13.6195 20.5032 13.7204 19.1764C13.7529 18.7377 13.7692 18.2193 13.8994 17.7588C13.997 17.4112 14.1597 17.0958 14.4233 16.854C14.8301 16.4804 15.3769 16.251 15.9757 16.1218C16.8218 15.9396 17.7623 15.9552 18.4946 15.9972C19.9297 16.0798 21.2315 16.5683 22.5788 17.0291C23.7764 17.4395 25.0228 17.7887 26.24 18.1431C27.8574 18.6134 29.5269 18.821 30.8058 20.0544C31.154 20.3909 31.3558 20.8293 31.4958 21.2979C31.6194 21.7219 31.691 22.171 31.7887 22.5746C31.831 22.7532 31.8895 22.9231 31.9579 23.0904H34.1481ZM31.333 23.0904C31.2907 22.9671 31.2517 22.8414 31.2191 22.7116C31.1248 22.3172 31.0564 21.8781 30.9327 21.4635C30.8254 21.0935 30.6724 20.7417 30.399 20.4758C29.1917 19.3117 27.6036 19.1493 26.0773 18.7055C24.8504 18.3488 23.5974 17.9967 22.3868 17.5833C21.0915 17.1398 19.8419 16.6614 18.4588 16.582C17.7754 16.5426 16.8902 16.5237 16.0994 16.6946C15.6079 16.8003 15.1523 16.9784 14.8204 17.2852C14.5861 17.4997 14.4787 17.8024 14.4136 18.1206C14.342 18.4894 14.329 18.8809 14.3029 19.2203C14.2053 20.5321 14.1858 21.8046 14.0231 23.0904H14.7943C14.9668 22.3188 15.0937 21.5309 15.1393 20.7479C15.1621 20.3427 15.1718 19.8855 15.263 19.4637C15.3638 18.9951 15.5689 18.5697 15.9789 18.2782C16.7893 17.7002 17.9348 17.5794 18.9014 17.5768C19.8647 17.5742 20.7564 17.8622 21.6871 18.0774C23.2297 18.4334 24.7625 18.8164 26.2888 19.2362C26.9982 19.4312 27.6719 19.6805 28.3521 19.9574C28.8012 20.1397 29.2763 20.3173 29.631 20.6594C30.2461 21.2497 30.4837 22.2124 30.6106 23.0904H31.333ZM30.1224 23.0904C30.015 22.3305 29.8198 21.5156 29.2926 21.0112C28.9834 20.7121 28.5603 20.5689 28.1698 20.4094C27.5059 20.14 26.8485 19.8969 26.1586 19.7071C24.6388 19.289 23.1125 18.9076 21.5764 18.5528C20.6815 18.3465 19.8289 18.0624 18.9014 18.065C18.0324 18.0673 16.991 18.1545 16.2621 18.6755C15.9562 18.8932 15.8162 19.2177 15.7414 19.5675C15.6535 19.9646 15.6502 20.3951 15.6274 20.7762C15.5819 21.5494 15.4583 22.3272 15.2955 23.0904H16.1872C16.2718 22.4987 16.3499 21.8886 16.5159 21.3236C16.7437 20.5445 17.1342 19.8497 17.9055 19.3811C18.3676 19.1025 18.9111 19.0153 19.4839 19.0267C20.2812 19.0426 21.1306 19.2541 21.8303 19.3391C23.2557 19.5122 24.7722 19.5854 26.1488 20.0082C26.7704 20.1989 27.5092 20.5233 27.8801 21.0896C28.2544 21.6634 28.365 22.3855 28.4008 23.0904H30.1224ZM27.9811 23.0904C27.955 22.4646 27.8574 21.8287 27.5254 21.321C27.2098 20.8345 26.5589 20.5764 26.0252 20.4127C24.6714 19.9971 23.1776 19.9294 21.7782 19.7589C21.2054 19.6892 20.5253 19.5311 19.8581 19.4715C19.2365 19.4159 18.6215 19.4426 18.1268 19.7429C17.4532 20.1514 17.1212 20.7629 16.9195 21.4421C16.7665 21.9693 16.6916 22.5368 16.6135 23.0904H18.091C18.1138 22.6758 18.1593 22.2456 18.2765 21.8534C18.423 21.3545 18.6801 20.9168 19.1227 20.633C20.0632 20.0274 20.9581 20.2252 21.9702 20.4114C22.7676 20.5585 23.5681 20.6929 24.3524 20.91C24.8829 21.0574 25.6867 21.2634 26.0675 21.6894C26.419 22.0822 26.5101 22.586 26.5101 23.0904H27.9811ZM26.1879 23.0904C26.1911 22.6634 26.1196 22.2377 25.8234 21.9061C25.6932 21.7597 25.5012 21.6474 25.2929 21.5547C24.9512 21.4033 24.5607 21.306 24.2646 21.2237C23.49 21.0089 22.6992 20.8768 21.9084 20.7313C20.9842 20.5608 20.1608 20.3515 19.2984 20.9067C18.8265 21.2097 18.6117 21.7268 18.5076 22.2846C18.4555 22.5489 18.4295 22.8226 18.4165 23.0904H18.9697C18.9925 22.8919 19.038 22.6982 19.1324 22.5082C19.7247 21.3421 21.2966 20.8817 22.4877 21.3269C23.272 21.6194 23.8838 22.3295 24.2906 23.0904H26.1879ZM23.9587 23.0904C23.5877 22.4418 23.0572 21.8524 22.3868 21.6012C21.3259 21.2048 19.92 21.6028 19.396 22.6406C19.3212 22.7877 19.2821 22.9374 19.2626 23.0904H20.4016C20.7271 22.3783 21.3942 21.8482 22.2501 22.3477C22.5658 22.53 22.7676 22.7949 22.9335 23.0904H23.9587ZM22.6341 23.0904C22.5039 22.8854 22.3445 22.7041 22.1199 22.5726C21.4658 22.1915 20.9646 22.558 20.688 23.0904H22.6341Z" fill="#231F20"/>
</svg>
