<svg width="30" height="29" viewBox="0 0 30 29" fill="none" xmlns="http://www.w3.org/2000/svg">
<path d="M9.52399 18.2489H10.3989C10.9111 18.2489 11.1671 18.0355 11.1671 17.6087C11.1671 17.1819 10.9111 16.9685 10.3989 16.9685H9.52399V18.2489Z" fill="#FFB750"/>
<path d="M14.331 19.9205H15.0138C15.5117 19.9205 15.8793 19.8019 16.1164 19.5648C16.3582 19.323 16.4791 18.9578 16.4791 18.4694C16.4791 17.9809 16.3582 17.6182 16.1164 17.3811C15.8745 17.144 15.507 17.0254 15.0138 17.0254H14.331V19.9205Z" fill="#FFB750"/>
<path fill-rule="evenodd" clip-rule="evenodd" d="M12.2864 5.07577V0C11.2684 0.23832 10.3216 0.568557 9.60194 0.907318C7.48582 1.90343 5.91241 3.46511 4.46591 5.24924C3.05489 6.9899 1.97846 8.59717 1.20671 10.7135C1.09872 11.0098 0.982797 11.3036 0.867054 11.5969C0.400236 12.7801 -0.0636727 13.9559 0.00720907 15.2563C0.256339 19.8186 3.18779 23.3805 6.9162 25.7699C9.44895 27.3928 11.9851 28.4395 15.0187 28.6409C18.4044 28.8658 22.3503 28.8996 25.0754 26.5803C26.5333 25.3391 26.9694 23.3653 27.3751 21.529C27.4578 21.1549 27.5392 20.7864 27.6278 20.431C27.7041 20.1248 27.7814 19.8193 27.8587 19.5141C28.3657 17.5115 28.8692 15.5228 29.0456 13.4502C29.3208 10.2196 28.5478 6.73623 26.5483 4.12313C24.8946 1.96167 22.352 0.804753 19.7265 0.239589C19.4037 0.170063 19.0788 0.115355 18.7529 0.0677392V5.07577C18.7529 5.64536 19.2147 6.1071 19.7843 6.1071C20.6587 6.1071 21.1363 7.12694 20.5766 7.79868L16.5132 12.6747C15.9961 13.2952 15.0432 13.2952 14.5261 12.6747L10.4628 7.79868C9.90298 7.12694 10.3806 6.1071 11.2551 6.1071C11.8246 6.1071 12.2864 5.64536 12.2864 5.07577ZM8.21516 20.9803V15.9655H10.6265C11.1956 15.9655 11.6342 16.1125 11.9425 16.4066C12.2555 16.6958 12.4119 17.0965 12.4119 17.6087C12.4119 18.1208 12.2555 18.5239 11.9425 18.8179C11.6342 19.1072 11.1956 19.2518 10.6265 19.2518H9.52399V20.9803H8.21516ZM13.0221 20.9803V15.9655H15.0992C15.967 15.9655 16.6404 16.1837 17.1193 16.62C17.5983 17.0562 17.8378 17.6727 17.8378 18.4694C17.8378 19.2661 17.5983 19.8849 17.1193 20.3259C16.6404 20.7622 15.967 20.9803 15.0992 20.9803H13.0221ZM18.614 15.9655V20.9803H19.9229V18.9886H21.9572V17.9857H19.9229V16.9756H22.1137V15.9655H18.614Z" fill="#FFB750"/>
</svg>
