<svg width="92" height="113" viewBox="0 0 92 113" fill="none" xmlns="http://www.w3.org/2000/svg">
<path d="M12.3078 92.2817H0.935913V97.0492H11.9873C14.3767 97.0492 15.0875 98.1067 15.0875 99.4311C15.0875 100.784 14.3767 101.852 11.9873 101.852L0.935913 101.847V112.51H6.4242V106.62H12.3078C17.296 106.62 20.5783 103.462 20.5783 99.4311C20.5783 95.4031 17.296 92.2817 12.3078 92.2817Z" fill="#FFB750"/>
<path d="M25.7983 112.51H44.0153V107.748H31.2879V104.555H39.9474V99.7853H31.2879V97.0492H44.0153V92.2817H25.7983V112.51Z" fill="#FFB750"/>
<path d="M50.0162 112.51H55.5083V104.555H64.1728V99.7853H55.5083V97.0492H68.2419V92.2817H50.0162V112.51Z" fill="#FFB750"/>
<path d="M82.8349 96.6626C84.7304 96.6626 86.3291 97.3671 87.5151 98.7015L91.9359 95.6262C89.5004 93.081 86.1857 91.8926 82.8349 91.8926C76.2018 91.8926 70.8868 96.4643 70.8868 102.394C70.8868 108.324 76.2018 112.9 82.8349 112.9C86.1682 112.9 89.463 111.724 91.896 109.207L87.444 106.342C86.2967 107.462 84.6506 108.138 82.8349 108.138C79.5551 108.138 76.5584 105.589 76.5584 102.394C76.5584 99.2003 79.5551 96.6626 82.8349 96.6626Z" fill="#FFB750"/>
<path d="M54.8896 64.3914V55.1719H67.9213L50.5673 19.6646L42.4166 35.1542C42.6361 36.2878 42.7495 37.4575 42.7495 38.6559C42.7495 45.7143 38.7852 51.8597 32.929 55.0672L32.621 55.1719H46.2126V64.3914H54.8896Z" fill="#FFB750"/>
<path d="M18.4607 54.0502V64.6639H27.1377V54.2111C34.0539 52.4453 39.1556 46.2773 39.1556 38.9297C39.1556 30.214 31.965 23.147 23.0947 23.147C14.2195 23.147 7.02771 30.214 7.02771 38.9297C7.02771 46.0653 11.8463 52.0936 18.4607 54.0502Z" fill="#FFB750"/>
<path d="M14.2195 21.6674C15.0875 21.2185 15.9916 20.8306 16.9306 20.5139C25.7024 11.459 37.8861 5.55672 50.0349 5.55672C69.2308 5.55672 81.3459 20.2931 78.0213 38.9254L85.6944 31.7685L90.8173 37.4576C93.3912 16.4173 79.0563 0.0996094 56.8413 0.0996094C40.7294 0.0996094 24.575 8.68932 13.9875 21.4392C13.9875 21.4392 13.9277 21.529 14.015 21.6238C14.111 21.7298 14.2195 21.6674 14.2195 21.6674Z" fill="#FFB750"/>
<path d="M36.1913 84.8884C59.8355 84.8884 83.5619 66.3996 89.6613 43.4114L84.6942 37.8994L76.0896 45.9205C69.5039 63.4328 51.0275 76.9509 32.6472 76.9509C13.6845 76.9509 1.63548 62.5724 4.54361 44.2606C4.20691 43.0834 3.97246 41.8563 3.86023 40.598C3.86023 40.598 3.86771 40.512 3.74675 40.5245C3.67192 40.5307 3.64573 40.598 3.64573 40.598C3.46741 41.229 3.30155 41.8601 3.14442 42.4923C-2.5621 65.9132 12.2329 84.8884 36.1913 84.8884Z" fill="#FFB750"/>
</svg>
