<svg width="150" height="150" viewBox="0 0 150 150" fill="none" xmlns="http://www.w3.org/2000/svg" xmlns:xlink="http://www.w3.org/1999/xlink">
<path fill-rule="evenodd" clip-rule="evenodd" d="M70.9188 3.52689C58.1021 8.39692 49.3916 12.3446 39.9891 22.5187C35.5044 27.3692 32.1968 33.1095 28.1407 38.2986C22.5071 45.5081 16.6231 51.9451 12.6149 60.2962C9.9711 65.8108 8.86353 71.7464 6.91383 77.4911C4.38096 84.9524 0.294411 92.6697 0.0180583 100.658C-0.606455 118.826 15.0695 137.652 31.1675 144.448C42.8744 149.387 55.8456 149.033 68.3119 149.459C80.528 149.875 93.2468 151.099 105.147 147.516C116.97 143.955 131.349 137.392 138.847 127.27C148.728 113.925 150.584 95.9946 149.86 79.9543C149.377 69.2832 149.163 58.4406 145.671 48.2405C141.452 35.9265 132.922 26.5771 124.183 17.2732C119.241 12.0126 114.374 6.5826 107.667 3.52689C98.2298 -0.772366 84.3208 -1.56234 70.9188 3.52689Z" fill="white"/>
</svg>
