<svg width="150" height="150" viewBox="0 0 150 150" fill="none" xmlns="http://www.w3.org/2000/svg" xmlns:xlink="http://www.w3.org/1999/xlink">
<path fill-rule="evenodd" clip-rule="evenodd" d="M86.1289 0.347925C78.1698 1.598 77.1856 0.0342872 69.1929 1.07896C57.0614 2.66475 44.8874 7.26972 35.6974 15.3268C28.9961 21.1995 23.4292 27.9092 18.0686 34.9591C14.6988 39.3918 11.022 43.7274 8.28453 48.5819C6.00217 52.6259 4.81387 57.1911 3.48436 61.5951C2.2692 65.617 0.760326 69.5615 0.197585 73.7447C-0.481741 78.7869 0.778282 83.9153 1.15718 88.9289C1.55626 94.2428 1.21772 99.6826 3.02252 104.789C6.42812 114.412 15.302 120.667 23.4763 126.155C40.7688 137.766 59.2944 148.855 80.7077 149.935C87.6893 150.286 94.2696 149.129 101.159 148.354C107.789 147.607 113.183 147.824 118.871 143.901C129.225 136.761 132.204 124.291 136.22 113.23C138.563 106.779 140.661 100.252 142.968 93.7923C145.271 87.3409 147.923 81.223 149.107 74.4315C151.313 61.785 149.351 47.2192 144.127 35.4715C138.928 23.7836 125.395 16.4443 114.941 9.92667C108.701 6.03509 99.3701 -1.73259 86.1289 0.347925Z" fill="white"/>
</svg>
