<svg width="150" height="150" viewBox="0 0 150 150" fill="none" xmlns="http://www.w3.org/2000/svg" xmlns:xlink="http://www.w3.org/1999/xlink">
<path fill-rule="evenodd" clip-rule="evenodd" d="M74.2191 0.161531C46.3471 -2.76184 5.88264 34.5112 0.513873 70.0796C-0.943621 79.731 1.019 88.9095 2.43257 98.3976C4.31933 111.043 5.72296 122.131 14.9271 131.292C35.0066 151.281 63.6194 149.226 88.9798 149.346C99.5256 149.395 110.982 151.087 121.39 148.826C141.254 144.505 148.681 114.031 149.887 95.4269C150.196 90.6614 149.853 86.1474 149.068 81.4549C146.052 63.4224 135.699 45.9145 127.685 29.9735C123.804 22.2566 119.905 13.6671 112.685 8.96606C101.319 1.5609 86.9752 2.13481 74.2191 0.161531Z" fill="white"/>
</svg>
