<svg width="81" height="75" viewBox="0 0 81 75" fill="none" xmlns="http://www.w3.org/2000/svg">
<path fill-rule="evenodd" clip-rule="evenodd" d="M15.7158 16.0815C13.4001 21.0913 11.8926 23.6002 10.0771 26.6338C8.97891 28.4729 8.40286 30.5744 7.19687 32.3503C5.98702 34.1327 4.25757 35.4564 3.03362 37.2296C2.01237 38.7101 1.47223 40.4728 1.22974 42.2566C1.01549 43.836 0.887181 45.4972 1.13736 47.0805C1.65312 50.3317 3.2222 53.3231 3.76747 56.6164C4.1113 58.6981 4.48338 60.7811 4.65658 62.8866C4.82593 64.9512 4.76177 67.1832 6.19742 68.8167C10.6994 73.9346 18.8963 73.0513 24.8776 72.7968C26.861 72.7125 28.8407 72.6624 30.8165 72.8878C34.7347 73.3334 38.445 74.3894 42.4222 74.0757C44.7021 73.8951 47.0769 73.5259 49.2297 72.7138C51.9663 71.6815 54.4347 70.1627 57.2855 69.4033C62.7433 67.9492 69.5354 68.8312 72.9468 63.1714C74.5095 60.5794 74.9444 57.4034 76.0042 54.5808C77.613 50.2934 79.9031 46.5901 80.093 41.8611C80.2354 38.2803 78.9062 34.8684 77.3128 31.7517C75.0663 27.3549 71.9102 23.9364 68.6617 20.3411C67.2683 18.7986 66.029 17.0689 64.5446 15.62C63.6632 14.7591 62.6368 14.0696 61.7644 13.1968C60.1953 11.6267 59.3857 9.45924 58.1438 7.63987C56.6748 5.48828 54.4424 3.73615 52.16 2.57598C49.4645 1.20354 45.8593 0.512716 42.9329 1.39076C40.1257 2.23188 37.7227 4.12771 34.9399 5.09277C31.5503 6.26876 27.9297 5.96553 24.5132 6.94509C20.3884 8.12899 17.4786 12.27 15.7158 16.0815Z" stroke="white" stroke-width="0.1"/>
<path fill-rule="evenodd" clip-rule="evenodd" d="M19.2915 17.0058C17.9944 19.7454 16.7127 23.5819 15.5182 26.3716C14.701 28.2806 14.2186 30.5047 12.9921 32.1923C10.6327 35.4355 6.79145 36.5403 5.68809 40.7446C5.24418 42.4308 5.16078 44.1473 5.5213 45.8546C5.89849 47.641 6.68879 49.1875 6.7863 51.0543C6.96207 54.3859 6.60926 57.9415 8.35795 60.9092C12.2274 67.4747 19.6931 66.8525 26.122 67.5262C29.9389 67.9269 33.5017 69.3706 37.3853 69.3653C40.5196 69.36 43.482 68.4029 46.5213 67.7371C49.3542 67.1175 52.3679 66.7813 55.0711 65.6896C56.8211 64.9843 58.335 63.7635 60.058 62.9975C62.0466 62.1116 64.2611 62.2487 66.2433 61.4458C69.2878 60.2144 71.3918 56.4109 72.694 53.5355C74.0886 50.4531 75.2408 46.7788 75.2728 43.3563C75.3306 37.2179 72.449 31.0018 69.3314 25.9563C68.6206 24.8054 68.0818 23.5028 67.2491 22.4363C65.8224 20.609 63.5965 19.6742 62.1313 17.8496C60.4827 15.7982 59.6449 13.234 58.1567 11.0745C56.6864 8.94 54.3642 7.40145 52.0022 6.52078C49.7904 5.69679 47.0435 5.20371 44.7047 5.61768C42.1143 6.07516 39.7408 7.44496 37.1774 8.03296C31.3258 9.37507 26.3761 5.93673 22.0653 11.0745C21.4353 11.8246 20.5398 14.3691 19.2915 17.0058Z" stroke="white" stroke-width="0.5"/>
<path fill-rule="evenodd" clip-rule="evenodd" d="M17.3747 27.9084C16.8064 29.8965 15.3168 32.1365 13.9915 33.3837C12.3557 34.9222 10.276 36.1417 9.08412 38.1206C7.56764 40.6374 8.63765 42.76 8.71976 45.4271C8.85575 49.8318 7.34826 54.1284 9.98734 58.1389C13.2949 63.1632 19.2042 63.4954 24.5568 64.0953C28.7278 64.562 32.9513 66.1612 37.1621 66.0333C39.4778 65.9634 41.7346 65.5231 44.0183 65.1803C45.459 64.9654 47.0166 64.914 48.406 64.4368C50.6615 63.6616 52.6116 62.1968 54.9364 61.5851C60.0452 60.2417 66.7346 61.6813 69.3532 55.8357C71.5868 50.8495 73.3933 44.81 72.4503 39.2821C72.0615 37.0066 70.776 35.1753 70.0601 33.0316C69.3057 30.7733 69.2057 28.4885 67.8521 26.4714C66.1355 23.9111 63.1757 22.9302 61.3769 20.5598C58.9855 17.4115 57.945 12.341 54.3411 10.3713C47.7658 6.77744 40.34 9.78071 33.4671 10.254C30.8434 10.4359 26.8379 10.1512 24.7198 12.051C20.1087 16.1854 19.0092 22.1853 17.3747 27.9084Z" stroke="white"/>
<path fill-rule="evenodd" clip-rule="evenodd" d="M55.8583 13.7013C57.646 16.5245 57.8591 20.0175 60.0175 22.5802C61.2191 24.0067 62.5997 25.3209 63.9209 26.6328C64.53 27.2375 65.3009 27.7347 65.7472 28.4889C66.7323 30.1544 66.4569 32.4916 67.0949 34.318C67.3825 35.1421 68.0119 35.7758 68.2659 36.6077C68.6268 37.7861 68.561 39.0161 69.0616 40.1649C69.3931 40.9238 70.3834 41.7147 70.5052 42.5193C70.649 43.4645 70.3366 44.4364 70.0681 45.3276C69.5576 47.0217 68.7897 48.6326 68.3197 50.3332C67.8462 52.0474 67.841 54.0778 66.8807 55.6116C65.9043 57.171 64.0254 57.9779 62.3381 58.379C58.8892 59.1996 55.3906 58.458 51.9463 59.1083C49.9363 59.488 47.8431 60.3116 46.0162 61.2384C44.5449 61.9854 43.2948 62.8832 41.6584 63.2606C39.0184 63.8699 36.3357 63.1988 33.6969 62.9384C30.7174 62.6447 27.6819 62.7758 24.748 62.1124C22.3615 61.5725 20.1691 60.2985 17.9339 59.3361C15.5318 58.3013 12.2532 57.4932 10.846 55.0088C10.0942 53.6815 10.1364 52.1678 9.93371 50.6916C9.76452 49.4574 9.3892 48.3282 9.6987 47.0857C10.1462 45.2903 11.2595 43.7214 11.5291 41.8613C11.7797 40.1305 10.2045 38.675 11.3438 37.1227C12.2105 35.9426 13.5178 35.1439 14.8071 34.5411C15.794 34.0794 16.9303 33.7543 17.4939 32.7088C18.4201 30.9904 18.2757 28.9297 18.7186 27.0761C19.1413 25.3061 19.9808 23.6394 20.6033 21.9376C21.0583 20.6934 21.28 19.3411 21.8436 18.1408C23.3391 14.9574 26.1009 12.5377 29.5042 11.923C31.7221 11.5219 34.0283 11.4679 36.2757 11.4816C39.806 11.5029 43.3283 11.2051 46.8598 11.3249C48.1116 11.3676 49.3364 11.6661 50.5732 11.8411C51.9024 12.0292 55.0967 12.1734 55.8583 13.7013Z" fill="white"/>
<path fill-rule="evenodd" clip-rule="evenodd" d="M35.0551 29.4899C38.7169 31.7607 43.4373 34.0133 47.1273 36.2002C48.3464 36.9225 50.4485 38.1152 50.7956 39.6244C51.2251 41.4837 48.3703 42.8779 47.1208 43.5463C43.7779 45.3377 40.6909 47.8259 36.7406 47.8294C35.8187 47.8302 34.4412 47.9066 33.6277 47.3922C32.5148 46.6892 32.7166 44.6166 32.6711 43.4903C32.517 39.7923 32.3608 36.032 32.517 32.3325C32.5756 30.9504 33.0811 28.4156 35.0551 29.4899Z" fill="#B30838"/>
</svg>
