<svg width="1920" height="416" viewBox="0 0 1920 416" fill="none" xmlns="http://www.w3.org/2000/svg">
<path d="M0 98.5263V416H1920V0C1920 15.356 1915.83 23.3139 1909.73 34.9682C1908.81 36.7184 1907.85 38.5519 1906.85 40.5065C1906.21 41.7743 1905.54 43.0928 1904.87 44.4728L1904.38 45.4822C1896.97 60.6373 1887.83 75.4431 1878.7 90.2374L1878.69 90.2508L1878.69 90.2614C1868.2 107.245 1857.73 124.211 1849.91 141.67C1844.93 152.785 1841.54 164.573 1838.13 176.458C1831.25 200.4 1824.25 224.737 1803.92 244.765C1772.22 276.001 1711.47 292.453 1656.69 300.49C1599.73 308.852 1542.33 308.804 1484.98 308.757H1484.96C1433.86 308.714 1382.8 308.672 1332.11 314.579C1270.22 321.783 1205.76 337.458 1149.5 355.075C1136.99 358.99 1124.98 363.111 1113.09 367.188L1113.08 367.193L1113.06 367.201L1113.04 367.207C1080.73 378.288 1049.38 389.039 1011.53 394.429C948.081 403.468 883.826 398.142 820.001 392.852C800.063 391.199 780.167 389.55 760.351 388.344C727.904 386.37 695.242 385.383 662.574 384.397C601.32 382.549 540.046 380.699 480.136 372.337C426.496 364.856 375.963 350.131 325.839 335.525L325.823 335.521C305.883 329.71 286.006 323.918 266.025 318.609C251.739 314.812 236.461 311.173 220.782 307.438L220.7 307.418L220.654 307.407L220.617 307.398C195.09 301.318 168.503 294.986 143.398 287.315C101.322 274.46 63.4605 257.837 40.621 232.948C22.0439 212.714 18.3775 190.32 14.6809 167.74L14.6788 167.724C13.5913 161.083 12.5009 154.424 11.0272 147.8C9.75569 142.076 8.14428 136.464 6.54924 130.909L6.54739 130.903L6.54107 130.88C3.4197 120.012 0.361928 109.364 0.0298679 98.5263H0Z" fill="#FFF"/>
</svg>
