<svg width="1920" height="860" viewBox="0 0 1920 860" fill="none" xmlns="http://www.w3.org/2000/svg">
<path d="M0.0198896 65.9012L0 65.9019L6.32267e-08 67.8196L0 917.804H1920V0.442383L1919.99 0.442621C1919.78 19.3985 1914.92 39.2205 1905.03 60.6023C1881.19 112.206 1827.67 148.213 1778.14 172.435C1727.92 196.988 1674.9 214.921 1621.86 232.863L1621.86 232.864C1574.64 248.837 1527.4 264.817 1482.09 285.481C1436.44 306.28 1392.87 331.103 1349.31 355.919L1349.3 355.922C1302.24 382.735 1255.18 409.538 1205.55 431.249C1096 479.169 961.35 499.161 842.299 490.557C773.922 485.622 709.764 464.873 645.545 444.105L645.541 444.103C599.152 429.101 552.732 414.088 504.667 405.018C471.774 398.821 436.013 398.122 399.984 397.418H399.983L399.979 397.418C376.987 396.97 353.888 396.519 331.354 394.635C270.297 389.547 213.435 374.056 172.403 323.834C153.952 301.266 145.124 274.742 136.486 248.155L136.023 246.729L136.023 246.727C128.36 223.086 120.702 199.458 104.26 179.531C88.4715 160.376 67.6514 144.738 46.936 131.278C43.8526 129.276 40.4628 127.348 36.9928 125.375L36.9864 125.371C31.4211 122.207 25.6492 118.925 20.6014 115.032C13.7869 109.777 8.18891 103.476 5.02259 95.542C1.52228 86.7891 6.32267e-08 77.4575 6.32267e-08 67.8196C6.32267e-08 67.1815 0.006674 66.542 0.0198896 65.9012Z" fill="#231F20" fill-opacity="0.5" style="mix-blend-mode:multiply"/>
</svg>
